<?xml version="1.0" encoding="UTF-8" standalone="no"?>
<!-- Created with Inkscape (http://www.inkscape.org/) -->

<svg
   xmlns:dc="http://purl.org/dc/elements/1.1/"
   xmlns:cc="http://creativecommons.org/ns#"
   xmlns:rdf="http://www.w3.org/1999/02/22-rdf-syntax-ns#"
   xmlns:svg="http://www.w3.org/2000/svg"
   xmlns="http://www.w3.org/2000/svg"
   xmlns:sodipodi="http://sodipodi.sourceforge.net/DTD/sodipodi-0.dtd"
   xmlns:inkscape="http://www.inkscape.org/namespaces/inkscape"
   width="1095.4338"
   height="167.11626"
   viewBox="0 0 1095.4338 167.11626"
   id="svg2"
   version="1.1"
   inkscape:version="0.92.3 (2405546, 2018-03-11)"
   sodipodi:docname="logo.svg">
  <defs
     id="defs4" />
  <sodipodi:namedview
     id="base"
     pagecolor="#ffffff"
     bordercolor="#666666"
     borderopacity="1.0"
     inkscape:pageopacity="0.0"
     inkscape:pageshadow="2"
     inkscape:zoom="0.24748738"
     inkscape:cx="554.16405"
     inkscape:cy="-98.674646"
     inkscape:document-units="px"
     inkscape:current-layer="layer1"
     showgrid="true"
     units="px"
     inkscape:snap-bbox="true"
     inkscape:bbox-paths="true"
     inkscape:bbox-nodes="true"
     inkscape:snap-bbox-edge-midpoints="true"
     inkscape:snap-bbox-midpoints="true"
     inkscape:snap-intersection-paths="true"
     inkscape:object-paths="true"
     inkscape:object-nodes="true"
     inkscape:snap-smooth-nodes="true"
     inkscape:window-width="1600"
     inkscape:window-height="863"
     inkscape:window-x="0"
     inkscape:window-y="0"
     inkscape:window-maximized="1"
     showborder="true"
     fit-margin-top="0"
     fit-margin-left="0"
     fit-margin-right="0"
     fit-margin-bottom="0">
    <inkscape:grid
       type="xygrid"
       id="grid4136"
       empspacing="4"
       spacingx="16"
       spacingy="16"
       visible="false"
       originx="-53.999996"
       originy="-1033.9949" />
  </sodipodi:namedview>
  <metadata
     id="metadata7">
    <rdf:RDF>
      <cc:Work
         rdf:about="">
        <dc:format>image/svg+xml</dc:format>
        <dc:type
           rdf:resource="http://purl.org/dc/dcmitype/StillImage" />
        <dc:title></dc:title>
      </cc:Work>
    </rdf:RDF>
  </metadata>
  <g
     inkscape:label="Ebene 1"
     inkscape:groupmode="layer"
     id="layer1"
     transform="translate(-54,148.74893)">
    <path
       inkscape:connector-curvature="0"
       d=""
       style="opacity:1;fill:#8e0876;fill-opacity:1;fill-rule:nonzero;stroke:none;stroke-width:32;stroke-linecap:round;stroke-linejoin:round;stroke-miterlimit:4;stroke-dasharray:none;stroke-dashoffset:0;stroke-opacity:1"
       id="path4204-3"
       r="16"
       cy="-35.63784"
       cx="128" />
    <path
       style="opacity:1;fill:#8e0876;fill-opacity:1;fill-rule:nonzero;stroke:none;stroke-width:32;stroke-linecap:round;stroke-linejoin:round;stroke-miterlimit:4;stroke-dasharray:none;stroke-dashoffset:0;stroke-opacity:1"
       id="path4204-39"
       r="16"
       cy="-35.63784"
       cx="128"
       d=""
       inkscape:connector-curvature="0" />
    <ellipse
       style="opacity:1;fill:none;fill-opacity:1;fill-rule:nonzero;stroke:#8e0967;stroke-width:20;stroke-linecap:round;stroke-linejoin:round;stroke-miterlimit:4;stroke-dasharray:none;stroke-dashoffset:0;stroke-opacity:1"
       id="path4149-7-3-2"
       cx="135.11111"
       cy="-67.63784"
       rx="71.111115"
       ry="71.111092" />
    <g
       aria-label="Working Draft"
       transform="translate(-65.906667,-111.57935)"
       style="font-style:normal;font-weight:normal;line-height:0.01%;font-family:sans-serif;letter-spacing:0px;word-spacing:0px;fill:#8f0968;fill-opacity:1;stroke:none;stroke-width:1px;stroke-linecap:butt;stroke-linejoin:miter;stroke-opacity:1"
       id="flowRoot4151-7-6-2">
      <path
         d="m 321.90667,3.3733352 h 22.14666 l 6.6,44.7333348 q 1.02667,7.48 1.90667,15.106667 1.02667,7.480001 2.05333,15.106667 H 355.2 q 1.32,-7.626666 2.64,-15.106667 1.46667,-7.626667 2.93333,-15.106667 L 371.04,3.3733352 h 18.33334 L 399.78667,48.10667 q 1.46667,7.333334 2.78667,14.960001 1.46666,7.48 2.93333,15.253333 h 0.58667 q 0.88,-7.773333 1.76,-15.253333 1.02666,-7.480001 2.05333,-14.960001 l 6.6,-44.7333348 h 20.68 L 420.17334,99.000005 H 393.04 L 383.65334,55.58667 q -1.17334,-5.573333 -2.2,-11.146667 -0.88,-5.72 -1.61334,-11 h -0.58666 q -0.88,5.28 -1.76,11 -0.88,5.573334 -2.05334,11.146667 l -9.09333,43.413335 h -26.69334 z"
         style="font-style:normal;font-variant:normal;font-weight:bold;font-stretch:normal;font-size:146.66667175px;line-height:85.00000238%;font-family:'Source Sans Pro';-inkscape-font-specification:'Source Sans Pro Bold';fill:#8f0968;fill-opacity:1"
         id="path1040"
         inkscape:connector-curvature="0" />
      <path
         d="m 444.44667,62.626671 q 0,-9.093334 2.93334,-16.133334 2.93333,-7.186667 7.77333,-12.026667 4.98667,-4.840001 11.44,-7.333334 6.45333,-2.64 13.34667,-2.64 6.89333,0 13.2,2.64 6.45333,2.493333 11.29333,7.333334 4.98667,4.84 7.92,12.026667 2.93333,7.04 2.93333,16.133334 0,9.093333 -2.93333,16.28 -2.93333,7.04 -7.92,11.880001 -4.84,4.84 -11.29333,7.48 -6.30667,2.493338 -13.2,2.493338 -6.89334,0 -13.34667,-2.493338 -6.45333,-2.64 -11.44,-7.48 -4.84,-4.840001 -7.77333,-11.880001 -2.93334,-7.186667 -2.93334,-16.28 z m 22.14667,0 q 0,9.533333 3.22667,15.106667 3.37333,5.573333 10.12,5.573333 6.6,0 9.97333,-5.573333 3.37333,-5.573334 3.37333,-15.106667 0,-9.533334 -3.37333,-15.106668 -3.37333,-5.573333 -9.97333,-5.573333 -6.74667,0 -10.12,5.573333 -3.22667,5.573334 -3.22667,15.106668 z"
         style="font-style:normal;font-variant:normal;font-weight:bold;font-stretch:normal;font-size:146.66667175px;line-height:85.00000238%;font-family:'Source Sans Pro';-inkscape-font-specification:'Source Sans Pro Bold';fill:#8f0968;fill-opacity:1"
         id="path1042"
         inkscape:connector-curvature="0" />
      <path
         d="m 530.05418,26.253336 h 17.6 l 1.46666,12.76 h 0.58667 q 3.96,-7.48 9.53333,-11 5.57334,-3.52 11.14667,-3.52 3.08,0 4.98667,0.44 2.05333,0.293333 3.66667,1.026667 l -3.52,18.626667 q -2.05334,-0.586667 -3.81334,-0.88 -1.76,-0.293333 -4.10666,-0.293333 -4.10667,0 -8.65334,2.933333 -4.4,2.933333 -7.33333,10.413334 v 42.240001 h -21.56 z"
         style="font-style:normal;font-variant:normal;font-weight:bold;font-stretch:normal;font-size:146.66667175px;line-height:85.00000238%;font-family:'Source Sans Pro';-inkscape-font-specification:'Source Sans Pro Bold';fill:#8f0968;fill-opacity:1"
         id="path1044"
         inkscape:connector-curvature="0" />
      <path
         d="m 588.49168,-3.8133317 h 20.97333 V 55.14667 h 0.58667 l 23.02667,-28.893334 h 23.46666 l -25.52,29.920001 27.42667,42.826668 h -23.32 l -16.42667,-28.306667 -9.24,10.413333 v 17.893334 h -20.97333 z"
         style="font-style:normal;font-variant:normal;font-weight:bold;font-stretch:normal;font-size:146.66667175px;line-height:85.00000238%;font-family:'Source Sans Pro';-inkscape-font-specification:'Source Sans Pro Bold';fill:#8f0968;fill-opacity:1"
         id="path1046"
         inkscape:connector-curvature="0" />
      <path
         d="m 679.69316,15.546669 q -5.42667,0 -8.94667,-3.08 -3.52,-3.2266669 -3.52,-8.2133338 0,-4.98666681 3.52,-8.0666669 3.52,-3.0800001 8.94667,-3.0800001 5.57333,0 8.94666,3.0800001 3.52,3.08000009 3.52,8.0666669 0,4.9866669 -3.52,8.2133338 -3.37333,3.08 -8.94666,3.08 z m -10.70667,10.706667 h 21.56 v 72.746669 h -21.56 z"
         style="font-style:normal;font-variant:normal;font-weight:bold;font-stretch:normal;font-size:146.66667175px;line-height:85.00000238%;font-family:'Source Sans Pro';-inkscape-font-specification:'Source Sans Pro Bold';fill:#8f0968;fill-opacity:1"
         id="path1048"
         inkscape:connector-curvature="0" />
      <path
         d="m 709.37711,26.253336 h 17.6 l 1.46667,9.24 h 0.58667 q 4.69333,-4.4 10.26667,-7.626667 5.57333,-3.373333 13.05333,-3.373333 11.88,0 17.16,7.773334 5.42667,7.773333 5.42667,21.56 v 45.173335 h -21.56 V 56.613337 q 0,-7.92 -2.2,-10.853334 -2.05334,-2.933333 -6.74667,-2.933333 -4.10667,0 -7.04,1.906667 -2.93333,1.76 -6.45334,5.133333 v 49.133335 h -21.56 z"
         style="font-style:normal;font-variant:normal;font-weight:bold;font-stretch:normal;font-size:146.66667175px;line-height:85.00000238%;font-family:'Source Sans Pro';-inkscape-font-specification:'Source Sans Pro Bold';fill:#8f0968;fill-opacity:1"
         id="path1050"
         inkscape:connector-curvature="0" />
      <path
         d="m 806.5094,108.09334 q 0,4.10667 4.4,6.16 4.4,2.2 11.73333,2.2 7.33333,0 12.02667,-2.64 4.69333,-2.49333 4.69333,-6.30667 0,-3.37333 -2.93333,-4.54666 -2.78667,-1.17334 -8.21334,-1.17334 h -7.48 q -3.81333,0 -6.16,-0.29333 -2.34666,-0.14667 -4.10666,-0.58667 -3.96,3.52 -3.96,7.18667 z m -17.74667,3.37333 q 0,-8.8 10.41333,-14.666665 v -0.586667 q -2.93333,-1.906666 -4.84,-4.84 -1.90666,-2.933333 -1.90666,-7.48 0,-3.96 2.34666,-7.48 2.34667,-3.666667 5.86667,-6.16 v -0.586667 q -3.81333,-2.64 -6.89333,-7.48 -2.93334,-4.986667 -2.93334,-11.440001 0,-6.6 2.49334,-11.44 2.49333,-4.986667 6.6,-8.213334 4.25333,-3.373333 9.68,-4.986667 5.42666,-1.613333 11.29333,-1.613333 6.45333,0 11.29333,1.76 h 26.54667 V 41.94667 h -11.58667 q 1.02667,1.613333 1.61334,4.106667 0.73333,2.493333 0.73333,5.426667 0,6.306666 -2.2,11 -2.2,4.546667 -6.16,7.626667 -3.81333,2.933333 -9.09333,4.4 -5.13334,1.466667 -11.14667,1.466667 -4.25333,0 -8.8,-1.466667 -1.46667,1.173333 -2.05333,2.346667 -0.58667,1.173333 -0.58667,3.08 0,2.786667 2.34667,4.106667 2.49333,1.32 8.65333,1.32 h 11.73333 q 13.49334,0 20.53334,4.4 7.18666,4.253333 7.18666,14.080005 0,5.72 -2.93333,10.41333 -2.78667,4.84 -8.06667,8.21333 -5.28,3.52 -12.76,5.42667 -7.48,2.05333 -16.86666,2.05333 -6.45334,0 -12.02667,-1.17333 -5.42667,-1.02667 -9.68,-3.22667 -4.10667,-2.2 -6.45333,-5.72 -2.34667,-3.52 -2.34667,-8.36 z m 32.12,-48.546666 q 4.25333,0 7.04,-2.933334 2.93333,-3.08 2.93333,-9.24 0,-5.72 -2.93333,-8.653333 -2.78667,-3.080001 -7.04,-3.080001 -4.25333,0 -7.18667,2.933334 -2.78666,2.933333 -2.78666,8.8 0,6.16 2.78666,9.24 2.93334,2.933334 7.18667,2.933334 z"
         style="font-style:normal;font-variant:normal;font-weight:bold;font-stretch:normal;font-size:146.66667175px;line-height:85.00000238%;font-family:'Source Sans Pro';-inkscape-font-specification:'Source Sans Pro Bold';fill:#8f0968;fill-opacity:1"
         id="path1052"
         inkscape:connector-curvature="0" />
      <path
         d="m 902.60358,3.3733352 h 27.13334 q 11,0 19.8,2.7866668 8.8,2.7866667 15.10666,8.653334 6.30667,5.72 9.68001,14.666667 3.37333,8.946667 3.37333,21.266667 0,12.320001 -3.37333,21.413334 -3.37334,9.093334 -9.53334,15.106667 -6.16,5.866667 -14.81333,8.800001 -8.50667,2.933333 -19.06667,2.933333 h -28.30667 z m 25.81334,78.1733358 q 6.01333,0 11,-1.613333 4.98666,-1.613334 8.50666,-5.133334 3.66667,-3.666666 5.57334,-9.533333 2.05333,-5.866667 2.05333,-14.520001 0,-8.506667 -2.05333,-14.226667 -1.90667,-5.866667 -5.57334,-9.24 -3.52,-3.52 -8.50666,-4.986667 -4.98667,-1.466667 -11,-1.466667 h -4.10667 v 60.720002 z"
         style="font-style:normal;font-variant:normal;font-weight:bold;font-stretch:normal;font-size:146.66667175px;line-height:85.00000238%;font-family:'Source Sans Pro';-inkscape-font-specification:'Source Sans Pro Bold';fill:#8f0968;fill-opacity:1"
         id="path1054"
         inkscape:connector-curvature="0" />
      <path
         d="m 994.11671,26.253336 h 17.59999 l 1.4667,12.76 h 0.5866 q 3.96,-7.48 9.5334,-11 5.5733,-3.52 11.1466,-3.52 3.08,0 4.9867,0.44 2.0533,0.293333 3.6667,1.026667 l -3.52,18.626667 q -2.0534,-0.586667 -3.8134,-0.88 -1.76,-0.293333 -4.1066,-0.293333 -4.1067,0 -8.6534,2.933333 -4.4,2.933333 -7.3333,10.413334 v 42.240001 h -21.55999 z"
         style="font-style:normal;font-variant:normal;font-weight:bold;font-stretch:normal;font-size:146.66667175px;line-height:85.00000238%;font-family:'Source Sans Pro';-inkscape-font-specification:'Source Sans Pro Bold';fill:#8f0968;fill-opacity:1"
         id="path1056"
         inkscape:connector-curvature="0" />
      <path
         d="m 1045.6173,78.760004 q 0,-11.44 9.68,-17.893333 9.68,-6.453334 31.24,-8.653334 -0.2933,-4.84 -2.9333,-7.626667 -2.64,-2.933333 -8.5067,-2.933333 -4.6933,0 -9.3866,1.76 -4.6934,1.76 -9.9734,4.84 l -7.6266,-14.226667 q 7.04,-4.253334 14.6666,-6.893334 7.7734,-2.64 16.4267,-2.64 14.08,0 21.4133,8.066667 7.48,7.92 7.48,24.786667 v 41.653335 h -17.6 l -1.6133,-7.48 h -0.44 q -4.6933,4.106667 -9.9733,6.746667 -5.1334,2.493338 -11.2934,2.493338 -4.9866,0 -8.9466,-1.760005 -3.96,-1.613333 -6.7467,-4.546667 -2.7867,-3.08 -4.4,-7.04 -1.4667,-3.96 -1.4667,-8.653334 z m 20.5334,-1.613333 q 0,3.52 2.2,5.28 2.3466,1.613334 6.16,1.613334 3.8133,0 6.4533,-1.613334 2.64,-1.613333 5.5733,-4.546667 v -12.76 q -11.5866,1.613333 -15.9866,4.693334 -4.4,3.08 -4.4,7.333333 z"
         style="font-style:normal;font-variant:normal;font-weight:bold;font-stretch:normal;font-size:146.66667175px;line-height:85.00000238%;font-family:'Source Sans Pro';-inkscape-font-specification:'Source Sans Pro Bold';fill:#8f0968;fill-opacity:1"
         id="path1058"
         inkscape:connector-curvature="0" />
      <path
         d="m 1215.3405,98.120005 q -2.9334,0.88 -6.8934,1.76 -3.96,0.880005 -9.24,0.880005 -6.7466,0 -11.5866,-2.053338 -4.6934,-2.053334 -7.7734,-5.72 -2.9333,-3.666667 -4.4,-8.800001 -1.32,-5.28 -1.32,-11.586667 V 43.120003 h -22.44 v 55.880002 h -21.56 V 43.120003 h -9.68 V 27.133336 l 9.68,-0.733333 v -3.96 q 0,-5.720001 1.32,-10.853334 1.4667,-5.1333337 4.6934,-8.9466672 3.2266,-3.8133334 8.36,-6.0133335 5.1333,-2.2000001 12.4666,-2.2000001 4.5467,0 8.2134,0.8800001 3.8133,0.88 6.3066,1.76 l -3.96,15.8400007 q -4.1066,-1.466667 -7.48,-1.466667 -3.96,0 -6.16,2.493334 -2.2,2.346666 -2.2,7.92 v 4.4 h 23.6134 l 2.4933,-19.3600007 h 17.8933 V 26.253336 h 17.4534 v 16.866667 h -17.4534 v 29.186668 q 0,6.16 2.4934,8.946667 2.64,2.64 6.8933,2.64 1.76,0 3.52,-0.44 1.9067,-0.44 3.3733,-1.026667 z"
         style="font-style:normal;font-variant:normal;font-weight:bold;font-stretch:normal;font-size:146.66667175px;line-height:85.00000238%;font-family:'Source Sans Pro';-inkscape-font-specification:'Source Sans Pro Bold';fill:#8f0968;fill-opacity:1"
         id="path1060"
         inkscape:connector-curvature="0" />
    </g>
    <path
       style="color:#000000;font-style:normal;font-variant:normal;font-weight:normal;font-stretch:normal;font-size:medium;line-height:normal;font-family:sans-serif;text-indent:0;text-align:start;text-decoration:none;text-decoration-line:none;text-decoration-style:solid;text-decoration-color:#000000;letter-spacing:normal;word-spacing:normal;text-transform:none;writing-mode:lr-tb;direction:ltr;baseline-shift:baseline;text-anchor:start;white-space:normal;clip-rule:nonzero;display:inline;overflow:visible;visibility:visible;opacity:1;isolation:auto;mix-blend-mode:normal;color-interpolation:sRGB;color-interpolation-filters:linearRGB;solid-color:#000000;solid-opacity:1;fill:#8f0968;fill-opacity:1;fill-rule:evenodd;stroke:none;stroke-width:17.77777672;stroke-linecap:butt;stroke-linejoin:miter;stroke-miterlimit:4;stroke-dasharray:none;stroke-dashoffset:0;stroke-opacity:1;color-rendering:auto;image-rendering:auto;shape-rendering:auto;text-rendering:auto;enable-background:accumulate"
       d="m 123.11111,-116.08187 2.22222,66.221753 h 19.55555 l 2.22223,-66.221753 z"
       id="path4198-0-6-6"
       inkscape:connector-curvature="0"
       sodipodi:nodetypes="ccccc" />
    <ellipse
       style="opacity:1;fill:#8f0968;fill-opacity:1;fill-rule:nonzero;stroke:#8e0967;stroke-width:4;stroke-linecap:round;stroke-linejoin:round;stroke-miterlimit:4;stroke-dasharray:none;stroke-dashoffset:0;stroke-opacity:1"
       id="path4204-31-2-1"
       cy="-30.082298"
       cx="135.11111"
       rx="8.8888893"
       ry="8.8888865" />
  </g>
</svg>
